<mxfile host="app.diagrams.net" agent="Mozilla/5.0 (Windows NT 10.0; Win64; x64) AppleWebKit/537.36 (KHTML, like Gecko) Chrome/133.0.0.0 Safari/537.36" version="26.0.16">
  <diagram id="tKe9RC5sbApw3tgVKgyb" name="2 Tier arch.1">
    <mxGraphModel dx="1280" dy="868" grid="0" gridSize="10" guides="1" tooltips="1" connect="1" arrows="1" fold="1" page="0" pageScale="1" pageWidth="850" pageHeight="1100" math="0" shadow="0">
      <root>
        <mxCell id="0" />
        <mxCell id="1" parent="0" />
        <mxCell id="-dW1893087y7R_rvXg5h-1" value="&lt;font style=&quot;&quot; face=&quot;Helvetica&quot;&gt;&lt;b&gt;Region: us-west-1&lt;/b&gt;&lt;/font&gt;" style="points=[[0,0],[0.25,0],[0.5,0],[0.75,0],[1,0],[1,0.25],[1,0.5],[1,0.75],[1,1],[0.75,1],[0.5,1],[0.25,1],[0,1],[0,0.75],[0,0.5],[0,0.25]];outlineConnect=0;gradientColor=none;html=1;whiteSpace=wrap;fontSize=12;fontStyle=0;container=1;pointerEvents=0;collapsible=0;recursiveResize=0;shape=mxgraph.aws4.group;grIcon=mxgraph.aws4.group_region;strokeColor=#00A4A6;fillColor=none;verticalAlign=top;align=left;spacingLeft=30;fontColor=#147EBA;dashed=1;rounded=1;strokeWidth=3;" parent="1" vertex="1">
          <mxGeometry x="-160" y="56" width="726" height="485" as="geometry" />
        </mxCell>
        <mxCell id="-dW1893087y7R_rvXg5h-3" value="&lt;b&gt;&lt;font style=&quot;color: rgb(204, 204, 204);&quot; face=&quot;Helvetica&quot;&gt;VPC: 10.0.0.0/16&lt;/font&gt;&lt;/b&gt;" style="sketch=0;outlineConnect=0;gradientColor=none;html=1;whiteSpace=wrap;fontSize=12;fontStyle=0;shape=mxgraph.aws4.group;grIcon=mxgraph.aws4.group_vpc;strokeColor=light-dark(#0d7406, #ededed);fillColor=none;verticalAlign=top;align=left;spacingLeft=30;fontColor=light-dark(#30910d, #ededed);dashed=0;rounded=1;strokeWidth=3;" parent="-dW1893087y7R_rvXg5h-1" vertex="1">
          <mxGeometry x="27" y="30" width="661" height="415" as="geometry" />
        </mxCell>
        <mxCell id="-dW1893087y7R_rvXg5h-9" value="&lt;b&gt;&lt;font style=&quot;color: rgb(0, 102, 0);&quot;&gt;Public subnet1&lt;/font&gt;&lt;/b&gt;&lt;div&gt;&lt;b&gt;&lt;font style=&quot;color: rgb(0, 102, 0);&quot;&gt;10.0.1.0/24&lt;/font&gt;&lt;/b&gt;&lt;/div&gt;" style="points=[[0,0],[0.25,0],[0.5,0],[0.75,0],[1,0],[1,0.25],[1,0.5],[1,0.75],[1,1],[0.75,1],[0.5,1],[0.25,1],[0,1],[0,0.75],[0,0.5],[0,0.25]];outlineConnect=0;html=1;whiteSpace=wrap;fontSize=12;fontStyle=0;container=1;pointerEvents=0;collapsible=0;recursiveResize=0;shape=mxgraph.aws4.group;grIcon=mxgraph.aws4.group_security_group;grStroke=0;verticalAlign=top;align=left;spacingLeft=30;dashed=0;rounded=1;fillColor=#eeeeee;strokeColor=light-dark(#0d7406, #ededed);fontColor=light-dark(#30910d, #ededed);" parent="-dW1893087y7R_rvXg5h-1" vertex="1">
          <mxGeometry x="78" y="108" width="140" height="139" as="geometry" />
        </mxCell>
        <mxCell id="-dW1893087y7R_rvXg5h-20" value="&lt;b&gt;EC2&lt;/b&gt;" style="text;html=1;align=center;verticalAlign=middle;whiteSpace=wrap;rounded=0;" parent="-dW1893087y7R_rvXg5h-9" vertex="1">
          <mxGeometry x="39" y="116" width="60" height="19" as="geometry" />
        </mxCell>
        <mxCell id="-dW1893087y7R_rvXg5h-13" value="" style="shape=image;verticalLabelPosition=bottom;labelBackgroundColor=default;verticalAlign=top;aspect=fixed;imageAspect=0;image=data:image/png,iVBORw0KGgoAAAANSUhEUgAAAMgAAADICAYAAACtWK6eAAAACXBIWXMAAAsTAAALEwEAmpwYAAAStElEQVR4nO3d+ZMdVRUH8DtgACGPfRWr9D+wsIpSy5/0N62yClAUQRZRXMAgskwmMQkkkIQ9YRP5zcIfAEv2JEzYkVLCThKWBBKWZLbMkplklkwyw1yrX8973f363O773us+p/Pu91t1fpkiFYo3H/rdvveeo7quO1p3XVfyqz1e3V7NJ6qjpHs65sZrgV+94VoYr76FR+m+v9K1axFRi/3qL9eRQS0JaqBS19M1eINXX43WUr+GamtZULsrdeMRsRr26iZDLT9Cj5Tr8KBWBLUnXCujtderm706LFajtxB1a1Bj1Zqjx26L1rhXt9M1cUe4vuLXnUHtC9eqaE1WarVXh0Zq/12GuvtQfSBSh+gD90RrqlL3xmv6vnC1BfW3Nv1lbd0f1Ey4/u6VipT26gG/1M4yECABEiCZIZCUgQAJniR4krSRTxK181ofCJAACZC0xZD4QIAEaxKsSTS1JgmAAAmQAImuRRIFAiRAAiQ6jCQOBEiABEh0BYnaQQEBEiABEu0hUTuuOVoDCTYTsZnYRm4m+kCABDvu2HHX1I57AARIgARIdC2SKBAgARIg0WEkcSBAAiRAoitI1I6rCSBAAiRAoj0k6ourj9FAgqPyOCrfRh6VLwMBEtwnwX2SNvI+SRUIkAAJkLTFkESAAAmQAElbBEkMCJAACZC0VZGoL/4SBwIkQAIkbSEgQIJGEGgEoalGEOrzChAgARIg0bVIykCABC2F0FLoELKlUBUIkAAJkBwSQ6I+vyoAAiRAAiSHRJD4QIAEHRzRwVFTHRwDIEACJECia5FEgQAJkACJDiOJAwESIAESXUGiPrvq2DgQIMkdydBNx+rxZzv0dN8mPTO1TyNBZsZ36ektD+vJf35bvKu8+uzPx2og4R29MLTyFD3V9UboVwIhM71f73/mYlEkPhAgYZ1Psv+Dx+hfCCSe6f168sEzxJAEQICEBcnwvWcQvwVIUqa3PCQ2xCcKBEhyRzK65qrEXwYknpnxPrFJV3EgQJIrkvEXb4z9Aky8eivGwd0+Owpu1VyKiNg4OBoIkOSGZPyl5XEgL9+EXsC3B7MSqUjNTFSfXmkAAiS5IEkFgklXmgYiM1i0DARI+Kbv0kCWY/rubWlPEJnpu1UgQMKDhALi/QwjqudUR1QnA+FFEgECJPkjMQHBHPc51TnuVKTmuMeAAEm+SJKAAMmcMhITEAkk6tN5cSBAkh+SNCBAMicRCDcSHwiQ6N4Fs5UzEhsgriOhUjsSjguJ2l4BAiQsSGyBuIyEitTMRLV93nEaSObqHiYk4y/aA3EViS0QDiSzQICEC4kRSJ33SVoZCZXwPgknkhAQIOFAkggESLQJSOUVMDcStf1PYSBAkjcSE5BGbya24pOESmUBz43EBwIkuqeDB8lYAhAgOSwVCDeSAAiQHNR33FvpSUJFamai2hYGAiRAUgAkVML7JJxIykCApKS7O0pRHHiSaCkkNJDDRJCobVf4QIAESIrydYsKtePOgcQHAiS62wMCJIVAQsV0LCVvJAEQINF7n1sR/2CeX2H1dWv0hfifHXthudXCnXyz9eLyxIU7FduFO5UiLdypSM1xjwJxHEkqkAQktkAoJEYgCW+3qNi+3aJSpLdbVKRmJsaBOIzECogBST1AapEkAjEgoWL7CphKkV4BU7E5BZwHEhqIo0goIHspIAQSD1LsQ31hhdU+SSoQAgkV230SKkXaJ6Fie1Q+ayTqk8sNQBxEQgJ5boXVK2ATEJvNRAqI97OkzUQqtpuJVIq0mUilnvskWSJRn1x+vAaSFCAWb7eSgKQhMQFJ2nGnYrvjTqVIO+5U6r10lRWSWSBAkgokBUkakCQk3lrFBMSEhIrtsRQqRTqWQkVqRHUICJCkAklAYgPEhMQIJOHsFhXbs1tUinR2i0qj13ebRVIDxG0kVkAMSEggz8eBUEgSgRiQULE94EilSAccqUhN31Wf/LEWiLtIrIEQSIxALE4BpwIhkFCxPQVMpUingKk02wiiUSQ+EIeR9N3xXT2x6Qn95cSwdjpfHtDT/R/q8fXteujGkigSKll0S2kEifq4AsRBJP0P/ETPHJggPxCXc2DrOlEkVKQGi5aBuIika+GpenpvH/lhIFqPd14r9nWLBnK4CJIqENeQDD54ERwkZHrX+2JrEhJIxs3pbJFEgLiEZGTdUgBJFLJfbOFOJY8OjjZI1Md/iAJpJST1Zs+zKxs6BdwKd9ybye6MkZiASCDxgbQokoaANHhU/mBH0hSQZdk+SZKAcCMJgLQgkoaBOIikaSDLskOSBoQTidoaBtJiSJoC4hiSZjKU8ZqE/GwYuspTSMpAWhVJ00AcQtIskKEMkRiBCCBRW39/gm5lJKa3W3vWr7QD4ggSKoNCzekSgTAj8YE4iIQEsn5lpnfcDyYkNJAjRZBQ4R7iU6kAiGNIRkxAMm4EcbAgoTIg1ObUBEQCSRSIQ0gSgTiIxARkQABJEhBuJHEgjiBJBeIYkiQgA8xISCBC4+DUFgqIA0isgDiEJA3IACMSIxABJGrL707QLiKxBuIIEhsgA0xIEoEwI/GBOIhkpDMOxEPD0cGxiEhsgQwwIKGByMxMDIA4hsQEhKvNadGQkECWyAzxoSI1Di4KxCEkSUBcRGIEsoQfCQkk4+Z0tkjiQFoISb0JA3ENSTMZzBiJEYgAEhpIiyBpFohLSJoDcmSmSBKBMCNRWy4zAGkBJHUD6YwDcQVJMxnI+OtWKhBGJOojD0iLImkIiOB8EkkkzQIZyBCJFRAmJOqjy07UrYqkYSAOIskCyEBGSKyBMCCZBdK6SExvt8i3WJ0rxYf4SCGh0i80x50EIjQOLgTELSRJQFxEQgM5SgQJlbwbZpuQqI9+GwYig+SLZd/RA49cqwefuCFeT/o1lFL1IhnuvDkRiGtIqOzKoFtKI0hMQCSQ+ECEkGy/5pt69J0ndRap90ky/IwBSAEmXUkgMQHZJYAkCQg3kgAIM5Jt807T+z57S2eVer9uJQJxEAkJZNFRIkjSgHAiUR+GgTAiGXh0cWY4fCD1rUlSgTiGxAhkET8SGyBcSMpAJJBM7tycAxB7JFZAHEKSCGQRLxISiNA4uCoQbiQzByZj/xGGn79P716/ulrDz9oX9XarvIB/Kl67n7pBT2x9Kf73d94sPsRHCgmV0fWLo/WsX2PlWlStrJEYgQggUR/+JgDCiYRK1q+A6433VCnCpCsJJM2kP+MnCRWpcXA+EAEkVLLeJ2kISEZ9tw42JM2kP+OvW1SkxsEFQJiRUMl6M7FhIA4iaSb9Ga9JqEiNg4sCYURCJesd96aAOIakmfRnvHCnIjUOTn1QC4QJCZWsj6UMP7c6VKv0SKj2bd+QDsQhJFTGXrkjUuP/oYt6uxVexFfrObrGQzXxcnzi78zUhNg4OPXBpSdqCSRJQDjOblGveUkgjiCh0pfxHfdGM9Xzrtg4OPXBpSdpCSRpQPJGMryuDiAOILEF0tfEHfdGMxYeKMqMZBYIPxISCOMpYBOQvLvKFxUJCWShzB33cKZ2vKYHbzqGpas8hSQEhBeJEQgTkt0JQFxEQqVX6I57OTMzenLzI3po5SmsoxdqkdQA4UOSCIQBSRoQ15CYgPQ2iIRc0L8a1IShxl+5WY8+faUevudbYvNJwkgIIDxIqHBeurIB4hKSJCC9gtN3pZGo939NAckfiQkIFxISyLo4EFeQpAHpdRRJGYgEEhII4/VdIxCBcXBFQGIDpNdBJFUg3EiMQJiQUEC8n0nNTJRGQgJZwDN6ochIIkA4kSQCyQhJ0h33iS0vk0AkB4tKIqGyt3OxsUY7g2PwrYwkBoQLSSqQDJDUGx/IcU4iaSZ9LfwkUe9fEgfCgcQKSJNIGgfiHpKsgfS1CBIfiAASKlm3FGoOiFtImgKysHXXJAEQZiQkkIz7bjUEpAAjqiWQNJPeFl64q81hIIxIjEAyRBK+3157x5067l4F4iASKqMv3xmpsXC9ElQrv90qA5FAkggkpw6O4VfAu9fSr3mlp+9KIaHSwzifpKhI1OZLTtYSSFKB5IzEBER6+q4UklQgHW4iUZsv9oDwI7ECkiMSEshaH4iLSKyAdLiHxAcigMQaSE5IhkxABAeLSiKh0l2A6bvSSAIgzEhIIIxd5YfW3mIG4iASEsh8+em70kiiQBiRUOEcvZAKxDEkRiDz3UaiNtUCYUJCA+EbvWAFxCEkiUDmu4tEbbroZC2BxAyEB4k1EEeQpAKZ7yYSH4gAkmQg+SMZWhMH4i3cpWYmSiOxAjLfPSQBEGYkJJCMm9MNPLY0qMejNf5R/Li791SRHCwqiYTKnnVL6Hpmid77zOJqtTKSKBBGJEYgOTenS4oP5HgnkTSTnhZ+ksSBMCFJBJJjczo7IO4hyQxIR2shoYEwIKHC0ZzOHohbSDIF0tE6SNTGCw1AckZiApJ3c7pEIGtqgbiDpJl0t/DCvQxEAkkSkKyQDHXeFdT61eWqHH2f+OS12N/vLdwHH1+qB5+oLeJue51z3JPGwZH1tFfXJ9ZwpdbEa2TNErrW0kVl70t3xmrUq5pj8K38dqsKhBsJCYShq3zlFXD/Ix1N/V+z1fPl2KD4YNEiIFEbLzxFSyChwjmf5PNl3y/3f0XoTLz3qPhg0SIgmQXCjyQRCBOSPa89BB9EZvaP697bzhQfLFoEJGrjrypAeJGkAmFA8vG803wkeJJUMz3Srfvv/7H4zMS+giDxgQggoSI1Du7zpd/T/Q+364mP/xv7d9q3bUPsbrvtHXfvZ9V/ps5xcJOfbtAjz6+K1Z7ZorLnhVXp9aLhz3beqAf/cYHuWnAK++iF3gIjCYAwIyGBCI2DqyzcyfNZ3qvfnO+4NzIOjortK2Aq0vNJeguKRL0XBsKIhAZykigSE5C877g3Mg4uCUgaEhJIAYb49BYQSRmIBBIzEDkkgwlA8rzj3sg4OBKI5WaiEQiQ6FokVSDcSJKByCBJA5LXHfdGxsEZgVggSQQCJDqMRL13QQCEE0k6EH4kg0+nA8njjnsj4+ASgaQgSQUCJDoKRACJHRBeJEYgOd9xb2QcXCqQBCRWQIBER4EwI6GSd8PsNCSJQHK8497IODgrIAYkJJACDPHpKeDCPQqEEYkJiCQSCoi3Lsn7jnsj4+Co2J4CpiI9n6SnoEjUu7VAmJAkAZFCYgKS9x33RsbBkUAsj8qbgADJkTEkZSASSNKASCDZsfqc6BH5zrv0ztXnWDWC6L7r7NhOe/fdZ1vdJ+m556zYjnvPvWcl3icp78LX7LLb3iehdtil55P0FPRJot493wfCjcQGiPSaJI+u8q186WpnCyJR755/qpZAQgIRGgcHJEDSb0AyC4QfiREIkOBJ0lGcJ0kICC+SRCBAAiQdxUBSA4QPCRWpcXBF/LrVvepHsTvt3s+wJpnLikS988taIDxITECAxAdievWLhftc1idJGYgEEhqIzDi4Ij5JkoHg7VYPE5IqEG4kJBCGrvIHCxLjBSy8Ataca5IIEE4kRiBAkn5DEUg0F5IYEC4kiUCAJP0KL5BoDiQkEA4kqUAcR4I57qVC7Lird86jgeSNhIrUOLgiIsEc91IhjqWotz0gAkhIIBk3pzuYkWCOe6kQZ7fKQCSQGIEACea4txfngGMVCDeSRCBAgjnu7cVAot4+7zQtgSQViONIMMe9VIij8urtX3hA+JFQ/XA3X/p1IJlFsnt9vEXo0JqVuE/SzovEByKAZGrPAPkUQczpf+hqXLpq532SBECYkQy/9jgs1JOZGf3F0jNxM7Gd9+tWFAgjkq0Lf6hnpg4AiWX2vvlvXN9t51+TqLdqgTAi2XH/FUBikX2fvqG3X/0N3HFv51+4l4FIItm64Ad6+H+P6amRXXiahL9RHZjUkzs26oF/LdDb5p2KRhDXyTSCUG/93AciiURqiM/B+goY3VJKbEh8IEACJGgppCkkARAgARIg0bVIokCABEiARIeRxIEACZAAia4gUW+eSwABEiABEu0hKQMBErzdQreUueTbrSoQIAESIJkbQ6LePPdrVSBAAiRAMjeCZBYIkGAzEd1SeojNxBAQIAESIOmpQaLe/FkYCJAACZD0hIG84QEBEpzdwqQrTZ3dKgMBEhxwxDi4EnnAsQoESIAESEoxJBEgQAIkQFKKIFFv/DQKBEiABEhKVSQ+ECDBpSuMqNbUpasACJAACZDoWiTq9TAQIAESINFhJGUgQII77rbTd7eHy4EhPlUgQAIkQFKKIVGvnxMAARIgAZJSBIl6/ZzTNZCgpRBaCpXIr1uzQIAEfbfQd6uLQBICAiRAAiRdNUhqgAAJkABJVwiJ2hADAiRAAiRds0jUhrNP10CCXsDoBXw0uU/iAwESNMxGw2xNbSb+H6Z8NTFJdWKyAAAAAElFTkSuQmCC;" parent="-dW1893087y7R_rvXg5h-1" vertex="1">
          <mxGeometry x="110" y="143" width="81" height="81" as="geometry" />
        </mxCell>
        <mxCell id="-dW1893087y7R_rvXg5h-25" value="&lt;b&gt;Private subnet1&lt;/b&gt;&lt;div&gt;&lt;b&gt;10.0.4.0/24&lt;/b&gt;&lt;/div&gt;" style="points=[[0,0],[0.25,0],[0.5,0],[0.75,0],[1,0],[1,0.25],[1,0.5],[1,0.75],[1,1],[0.75,1],[0.5,1],[0.25,1],[0,1],[0,0.75],[0,0.5],[0,0.25]];outlineConnect=0;gradientColor=none;html=1;whiteSpace=wrap;fontSize=12;fontStyle=0;container=1;pointerEvents=0;collapsible=0;recursiveResize=0;shape=mxgraph.aws4.group;grIcon=mxgraph.aws4.group_security_group;grStroke=0;strokeColor=#00A4A6;fillColor=#E6F6F7;verticalAlign=top;align=left;spacingLeft=30;fontColor=#147EBA;dashed=0;rounded=1;" parent="-dW1893087y7R_rvXg5h-1" vertex="1">
          <mxGeometry x="502" y="266" width="141" height="130" as="geometry" />
        </mxCell>
        <mxCell id="-dW1893087y7R_rvXg5h-23" value="&lt;b&gt;Private subnet1&lt;/b&gt;&lt;div&gt;&lt;b&gt;10.0.3.0/24&lt;/b&gt;&lt;/div&gt;" style="points=[[0,0],[0.25,0],[0.5,0],[0.75,0],[1,0],[1,0.25],[1,0.5],[1,0.75],[1,1],[0.75,1],[0.5,1],[0.25,1],[0,1],[0,0.75],[0,0.5],[0,0.25]];outlineConnect=0;gradientColor=none;html=1;whiteSpace=wrap;fontSize=12;fontStyle=0;container=1;pointerEvents=0;collapsible=0;recursiveResize=0;shape=mxgraph.aws4.group;grIcon=mxgraph.aws4.group_security_group;grStroke=0;strokeColor=#00A4A6;fillColor=#E6F6F7;verticalAlign=top;align=left;spacingLeft=30;fontColor=#147EBA;dashed=0;rounded=1;" parent="-dW1893087y7R_rvXg5h-1" vertex="1">
          <mxGeometry x="80" y="261" width="135.5" height="130" as="geometry" />
        </mxCell>
        <mxCell id="-dW1893087y7R_rvXg5h-26" value="" style="sketch=0;outlineConnect=0;fontColor=#232F3E;gradientColor=none;fillColor=light-dark(#060a89, #ff7cff);strokeColor=light-dark(#000099,#4A4E52);dashed=0;verticalLabelPosition=bottom;verticalAlign=top;align=center;html=1;fontSize=12;fontStyle=0;aspect=fixed;pointerEvents=1;shape=mxgraph.aws4.rds_instance;rounded=1;labelBorderColor=none;" parent="-dW1893087y7R_rvXg5h-1" vertex="1">
          <mxGeometry x="106" y="299" width="78" height="78" as="geometry" />
        </mxCell>
        <mxCell id="-dW1893087y7R_rvXg5h-27" value="&lt;b&gt;&lt;font style=&quot;color: rgb(0, 102, 0);&quot;&gt;Public subnet1&lt;/font&gt;&lt;/b&gt;&lt;div&gt;&lt;b&gt;&lt;font style=&quot;color: rgb(0, 102, 0);&quot;&gt;10.0.1.0/24&lt;/font&gt;&lt;/b&gt;&lt;/div&gt;" style="points=[[0,0],[0.25,0],[0.5,0],[0.75,0],[1,0],[1,0.25],[1,0.5],[1,0.75],[1,1],[0.75,1],[0.5,1],[0.25,1],[0,1],[0,0.75],[0,0.5],[0,0.25]];outlineConnect=0;html=1;whiteSpace=wrap;fontSize=12;fontStyle=0;container=1;pointerEvents=0;collapsible=0;recursiveResize=0;shape=mxgraph.aws4.group;grIcon=mxgraph.aws4.group_security_group;grStroke=0;verticalAlign=top;align=left;spacingLeft=30;dashed=0;rounded=1;fillColor=#eeeeee;strokeColor=light-dark(#0d7406, #ededed);fontColor=light-dark(#30910d, #ededed);" parent="-dW1893087y7R_rvXg5h-1" vertex="1">
          <mxGeometry x="502" y="105" width="140" height="139" as="geometry" />
        </mxCell>
        <mxCell id="-dW1893087y7R_rvXg5h-28" value="&lt;b&gt;EC2&lt;/b&gt;" style="text;html=1;align=center;verticalAlign=middle;whiteSpace=wrap;rounded=0;" parent="-dW1893087y7R_rvXg5h-27" vertex="1">
          <mxGeometry x="39" y="116" width="60" height="19" as="geometry" />
        </mxCell>
        <mxCell id="-dW1893087y7R_rvXg5h-29" value="" style="shape=image;verticalLabelPosition=bottom;labelBackgroundColor=default;verticalAlign=top;aspect=fixed;imageAspect=0;image=data:image/png,iVBORw0KGgoAAAANSUhEUgAAAMgAAADICAYAAACtWK6eAAAACXBIWXMAAAsTAAALEwEAmpwYAAAStElEQVR4nO3d+ZMdVRUH8DtgACGPfRWr9D+wsIpSy5/0N62yClAUQRZRXMAgskwmMQkkkIQ9YRP5zcIfAEv2JEzYkVLCThKWBBKWZLbMkplklkwyw1yrX8973f363O773us+p/Pu91t1fpkiFYo3H/rdvveeo7quO1p3XVfyqz1e3V7NJ6qjpHs65sZrgV+94VoYr76FR+m+v9K1axFRi/3qL9eRQS0JaqBS19M1eINXX43WUr+GamtZULsrdeMRsRr26iZDLT9Cj5Tr8KBWBLUnXCujtderm706LFajtxB1a1Bj1Zqjx26L1rhXt9M1cUe4vuLXnUHtC9eqaE1WarVXh0Zq/12GuvtQfSBSh+gD90RrqlL3xmv6vnC1BfW3Nv1lbd0f1Ey4/u6VipT26gG/1M4yECABEiCZIZCUgQAJniR4krSRTxK181ofCJAACZC0xZD4QIAEaxKsSTS1JgmAAAmQAImuRRIFAiRAAiQ6jCQOBEiABEh0BYnaQQEBEiABEu0hUTuuOVoDCTYTsZnYRm4m+kCABDvu2HHX1I57AARIgARIdC2SKBAgARIg0WEkcSBAAiRAoitI1I6rCSBAAiRAoj0k6ourj9FAgqPyOCrfRh6VLwMBEtwnwX2SNvI+SRUIkAAJkLTFkESAAAmQAElbBEkMCJAACZC0VZGoL/4SBwIkQAIkbSEgQIJGEGgEoalGEOrzChAgARIg0bVIykCABC2F0FLoELKlUBUIkAAJkBwSQ6I+vyoAAiRAAiSHRJD4QIAEHRzRwVFTHRwDIEACJECia5FEgQAJkACJDiOJAwESIAESXUGiPrvq2DgQIMkdydBNx+rxZzv0dN8mPTO1TyNBZsZ36ektD+vJf35bvKu8+uzPx2og4R29MLTyFD3V9UboVwIhM71f73/mYlEkPhAgYZ1Psv+Dx+hfCCSe6f168sEzxJAEQICEBcnwvWcQvwVIUqa3PCQ2xCcKBEhyRzK65qrEXwYknpnxPrFJV3EgQJIrkvEXb4z9Aky8eivGwd0+Owpu1VyKiNg4OBoIkOSGZPyl5XEgL9+EXsC3B7MSqUjNTFSfXmkAAiS5IEkFgklXmgYiM1i0DARI+Kbv0kCWY/rubWlPEJnpu1UgQMKDhALi/QwjqudUR1QnA+FFEgECJPkjMQHBHPc51TnuVKTmuMeAAEm+SJKAAMmcMhITEAkk6tN5cSBAkh+SNCBAMicRCDcSHwiQ6N4Fs5UzEhsgriOhUjsSjguJ2l4BAiQsSGyBuIyEitTMRLV93nEaSObqHiYk4y/aA3EViS0QDiSzQICEC4kRSJ33SVoZCZXwPgknkhAQIOFAkggESLQJSOUVMDcStf1PYSBAkjcSE5BGbya24pOESmUBz43EBwIkuqeDB8lYAhAgOSwVCDeSAAiQHNR33FvpSUJFamai2hYGAiRAUgAkVML7JJxIykCApKS7O0pRHHiSaCkkNJDDRJCobVf4QIAESIrydYsKtePOgcQHAiS62wMCJIVAQsV0LCVvJAEQINF7n1sR/2CeX2H1dWv0hfifHXthudXCnXyz9eLyxIU7FduFO5UiLdypSM1xjwJxHEkqkAQktkAoJEYgCW+3qNi+3aJSpLdbVKRmJsaBOIzECogBST1AapEkAjEgoWL7CphKkV4BU7E5BZwHEhqIo0goIHspIAQSD1LsQ31hhdU+SSoQAgkV230SKkXaJ6Fie1Q+ayTqk8sNQBxEQgJ5boXVK2ATEJvNRAqI97OkzUQqtpuJVIq0mUilnvskWSJRn1x+vAaSFCAWb7eSgKQhMQFJ2nGnYrvjTqVIO+5U6r10lRWSWSBAkgokBUkakCQk3lrFBMSEhIrtsRQqRTqWQkVqRHUICJCkAklAYgPEhMQIJOHsFhXbs1tUinR2i0qj13ebRVIDxG0kVkAMSEggz8eBUEgSgRiQULE94EilSAccqUhN31Wf/LEWiLtIrIEQSIxALE4BpwIhkFCxPQVMpUingKk02wiiUSQ+EIeR9N3xXT2x6Qn95cSwdjpfHtDT/R/q8fXteujGkigSKll0S2kEifq4AsRBJP0P/ETPHJggPxCXc2DrOlEkVKQGi5aBuIika+GpenpvH/lhIFqPd14r9nWLBnK4CJIqENeQDD54ERwkZHrX+2JrEhJIxs3pbJFEgLiEZGTdUgBJFLJfbOFOJY8OjjZI1Md/iAJpJST1Zs+zKxs6BdwKd9ybye6MkZiASCDxgbQokoaANHhU/mBH0hSQZdk+SZKAcCMJgLQgkoaBOIikaSDLskOSBoQTidoaBtJiSJoC4hiSZjKU8ZqE/GwYuspTSMpAWhVJ00AcQtIskKEMkRiBCCBRW39/gm5lJKa3W3vWr7QD4ggSKoNCzekSgTAj8YE4iIQEsn5lpnfcDyYkNJAjRZBQ4R7iU6kAiGNIRkxAMm4EcbAgoTIg1ObUBEQCSRSIQ0gSgTiIxARkQABJEhBuJHEgjiBJBeIYkiQgA8xISCBC4+DUFgqIA0isgDiEJA3IACMSIxABJGrL707QLiKxBuIIEhsgA0xIEoEwI/GBOIhkpDMOxEPD0cGxiEhsgQwwIKGByMxMDIA4hsQEhKvNadGQkECWyAzxoSI1Di4KxCEkSUBcRGIEsoQfCQkk4+Z0tkjiQFoISb0JA3ENSTMZzBiJEYgAEhpIiyBpFohLSJoDcmSmSBKBMCNRWy4zAGkBJHUD6YwDcQVJMxnI+OtWKhBGJOojD0iLImkIiOB8EkkkzQIZyBCJFRAmJOqjy07UrYqkYSAOIskCyEBGSKyBMCCZBdK6SExvt8i3WJ0rxYf4SCGh0i80x50EIjQOLgTELSRJQFxEQgM5SgQJlbwbZpuQqI9+GwYig+SLZd/RA49cqwefuCFeT/o1lFL1IhnuvDkRiGtIqOzKoFtKI0hMQCSQ+ECEkGy/5pt69J0ndRap90ky/IwBSAEmXUkgMQHZJYAkCQg3kgAIM5Jt807T+z57S2eVer9uJQJxEAkJZNFRIkjSgHAiUR+GgTAiGXh0cWY4fCD1rUlSgTiGxAhkET8SGyBcSMpAJJBM7tycAxB7JFZAHEKSCGQRLxISiNA4uCoQbiQzByZj/xGGn79P716/ulrDz9oX9XarvIB/Kl67n7pBT2x9Kf73d94sPsRHCgmV0fWLo/WsX2PlWlStrJEYgQggUR/+JgDCiYRK1q+A6433VCnCpCsJJM2kP+MnCRWpcXA+EAEkVLLeJ2kISEZ9tw42JM2kP+OvW1SkxsEFQJiRUMl6M7FhIA4iaSb9Ga9JqEiNg4sCYURCJesd96aAOIakmfRnvHCnIjUOTn1QC4QJCZWsj6UMP7c6VKv0SKj2bd+QDsQhJFTGXrkjUuP/oYt6uxVexFfrObrGQzXxcnzi78zUhNg4OPXBpSdqCSRJQDjOblGveUkgjiCh0pfxHfdGM9Xzrtg4OPXBpSdpCSRpQPJGMryuDiAOILEF0tfEHfdGMxYeKMqMZBYIPxISCOMpYBOQvLvKFxUJCWShzB33cKZ2vKYHbzqGpas8hSQEhBeJEQgTkt0JQFxEQqVX6I57OTMzenLzI3po5SmsoxdqkdQA4UOSCIQBSRoQ15CYgPQ2iIRc0L8a1IShxl+5WY8+faUevudbYvNJwkgIIDxIqHBeurIB4hKSJCC9gtN3pZGo939NAckfiQkIFxISyLo4EFeQpAHpdRRJGYgEEhII4/VdIxCBcXBFQGIDpNdBJFUg3EiMQJiQUEC8n0nNTJRGQgJZwDN6ochIIkA4kSQCyQhJ0h33iS0vk0AkB4tKIqGyt3OxsUY7g2PwrYwkBoQLSSqQDJDUGx/IcU4iaSZ9LfwkUe9fEgfCgcQKSJNIGgfiHpKsgfS1CBIfiAASKlm3FGoOiFtImgKysHXXJAEQZiQkkIz7bjUEpAAjqiWQNJPeFl64q81hIIxIjEAyRBK+3157x5067l4F4iASKqMv3xmpsXC9ElQrv90qA5FAkggkpw6O4VfAu9fSr3mlp+9KIaHSwzifpKhI1OZLTtYSSFKB5IzEBER6+q4UklQgHW4iUZsv9oDwI7ECkiMSEshaH4iLSKyAdLiHxAcigMQaSE5IhkxABAeLSiKh0l2A6bvSSAIgzEhIIIxd5YfW3mIG4iASEsh8+em70kiiQBiRUOEcvZAKxDEkRiDz3UaiNtUCYUJCA+EbvWAFxCEkiUDmu4tEbbroZC2BxAyEB4k1EEeQpAKZ7yYSH4gAkmQg+SMZWhMH4i3cpWYmSiOxAjLfPSQBEGYkJJCMm9MNPLY0qMejNf5R/Li791SRHCwqiYTKnnVL6Hpmid77zOJqtTKSKBBGJEYgOTenS4oP5HgnkTSTnhZ+ksSBMCFJBJJjczo7IO4hyQxIR2shoYEwIKHC0ZzOHohbSDIF0tE6SNTGCw1AckZiApJ3c7pEIGtqgbiDpJl0t/DCvQxEAkkSkKyQDHXeFdT61eWqHH2f+OS12N/vLdwHH1+qB5+oLeJue51z3JPGwZH1tFfXJ9ZwpdbEa2TNErrW0kVl70t3xmrUq5pj8K38dqsKhBsJCYShq3zlFXD/Ix1N/V+z1fPl2KD4YNEiIFEbLzxFSyChwjmf5PNl3y/3f0XoTLz3qPhg0SIgmQXCjyQRCBOSPa89BB9EZvaP697bzhQfLFoEJGrjrypAeJGkAmFA8vG803wkeJJUMz3Srfvv/7H4zMS+giDxgQggoSI1Du7zpd/T/Q+364mP/xv7d9q3bUPsbrvtHXfvZ9V/ps5xcJOfbtAjz6+K1Z7ZorLnhVXp9aLhz3beqAf/cYHuWnAK++iF3gIjCYAwIyGBCI2DqyzcyfNZ3qvfnO+4NzIOjortK2Aq0vNJeguKRL0XBsKIhAZykigSE5C877g3Mg4uCUgaEhJIAYb49BYQSRmIBBIzEDkkgwlA8rzj3sg4OBKI5WaiEQiQ6FokVSDcSJKByCBJA5LXHfdGxsEZgVggSQQCJDqMRL13QQCEE0k6EH4kg0+nA8njjnsj4+ASgaQgSQUCJDoKRACJHRBeJEYgOd9xb2QcXCqQBCRWQIBER4EwI6GSd8PsNCSJQHK8497IODgrIAYkJJACDPHpKeDCPQqEEYkJiCQSCoi3Lsn7jnsj4+Co2J4CpiI9n6SnoEjUu7VAmJAkAZFCYgKS9x33RsbBkUAsj8qbgADJkTEkZSASSNKASCDZsfqc6BH5zrv0ztXnWDWC6L7r7NhOe/fdZ1vdJ+m556zYjnvPvWcl3icp78LX7LLb3iehdtil55P0FPRJot493wfCjcQGiPSaJI+u8q186WpnCyJR755/qpZAQgIRGgcHJEDSb0AyC4QfiREIkOBJ0lGcJ0kICC+SRCBAAiQdxUBSA4QPCRWpcXBF/LrVvepHsTvt3s+wJpnLikS988taIDxITECAxAdievWLhftc1idJGYgEEhqIzDi4Ij5JkoHg7VYPE5IqEG4kJBCGrvIHCxLjBSy8Ataca5IIEE4kRiBAkn5DEUg0F5IYEC4kiUCAJP0KL5BoDiQkEA4kqUAcR4I57qVC7Lird86jgeSNhIrUOLgiIsEc91IhjqWotz0gAkhIIBk3pzuYkWCOe6kQZ7fKQCSQGIEACea4txfngGMVCDeSRCBAgjnu7cVAot4+7zQtgSQViONIMMe9VIij8urtX3hA+JFQ/XA3X/p1IJlFsnt9vEXo0JqVuE/SzovEByKAZGrPAPkUQczpf+hqXLpq532SBECYkQy/9jgs1JOZGf3F0jNxM7Gd9+tWFAgjkq0Lf6hnpg4AiWX2vvlvXN9t51+TqLdqgTAi2XH/FUBikX2fvqG3X/0N3HFv51+4l4FIItm64Ad6+H+P6amRXXiahL9RHZjUkzs26oF/LdDb5p2KRhDXyTSCUG/93AciiURqiM/B+goY3VJKbEh8IEACJGgppCkkARAgARIg0bVIokCABEiARIeRxIEACZAAia4gUW+eSwABEiABEu0hKQMBErzdQreUueTbrSoQIAESIJkbQ6LePPdrVSBAAiRAMjeCZBYIkGAzEd1SeojNxBAQIAESIOmpQaLe/FkYCJAACZD0hIG84QEBEpzdwqQrTZ3dKgMBEhxwxDi4EnnAsQoESIAESEoxJBEgQAIkQFKKIFFv/DQKBEiABEhKVSQ+ECDBpSuMqNbUpasACJAACZDoWiTq9TAQIAESINFhJGUgQII77rbTd7eHy4EhPlUgQAIkQFKKIVGvnxMAARIgAZJSBIl6/ZzTNZCgpRBaCpXIr1uzQIAEfbfQd6uLQBICAiRAAiRdNUhqgAAJkABJVwiJ2hADAiRAAiRds0jUhrNP10CCXsDoBXw0uU/iAwESNMxGw2xNbSb+H6Z8NTFJdWKyAAAAAElFTkSuQmCC;" parent="-dW1893087y7R_rvXg5h-1" vertex="1">
          <mxGeometry x="529" y="139" width="81" height="81" as="geometry" />
        </mxCell>
        <mxCell id="0KcaxCZPYPAta7BWgIzk-2" value="&lt;b&gt;&lt;font face=&quot;Verdana&quot;&gt;Internet&lt;br&gt;gateway&lt;/font&gt;&lt;/b&gt;" style="sketch=0;outlineConnect=0;fontColor=#232F3E;gradientColor=none;strokeColor=#232F3E;fillColor=#ffffff;dashed=0;verticalLabelPosition=bottom;verticalAlign=top;align=center;html=1;fontSize=12;fontStyle=0;aspect=fixed;shape=mxgraph.aws4.resourceIcon;resIcon=mxgraph.aws4.internet_gateway;strokeWidth=3;" parent="-dW1893087y7R_rvXg5h-1" vertex="1">
          <mxGeometry x="325" y="9" width="61.5" height="61.5" as="geometry" />
        </mxCell>
        <mxCell id="45tHPp1j6VeSHIS7WZfE-12" value="" style="edgeStyle=orthogonalEdgeStyle;rounded=0;orthogonalLoop=1;jettySize=auto;html=1;flowAnimation=1;strokeWidth=3;" parent="-dW1893087y7R_rvXg5h-1" edge="1">
          <mxGeometry relative="1" as="geometry">
            <mxPoint x="327.5" y="177" as="sourcePoint" />
            <mxPoint x="218" y="182" as="targetPoint" />
            <Array as="points">
              <mxPoint x="335" y="177" />
              <mxPoint x="335" y="182" />
            </Array>
          </mxGeometry>
        </mxCell>
        <mxCell id="45tHPp1j6VeSHIS7WZfE-19" value="" style="edgeStyle=orthogonalEdgeStyle;rounded=0;orthogonalLoop=1;jettySize=auto;html=1;flowAnimation=1;strokeWidth=3;" parent="-dW1893087y7R_rvXg5h-1" edge="1">
          <mxGeometry relative="1" as="geometry">
            <mxPoint x="388" y="180.25" as="sourcePoint" />
            <mxPoint x="502" y="178.75" as="targetPoint" />
            <Array as="points">
              <mxPoint x="388" y="179" />
            </Array>
          </mxGeometry>
        </mxCell>
        <mxCell id="0KcaxCZPYPAta7BWgIzk-3" value="" style="outlineConnect=0;dashed=0;verticalLabelPosition=bottom;verticalAlign=top;align=center;html=1;shape=mxgraph.aws3.application_load_balancer;fillColor=#1A1A1A;gradientColor=none;" parent="-dW1893087y7R_rvXg5h-1" vertex="1">
          <mxGeometry x="325" y="147.5" width="69" height="72" as="geometry" />
        </mxCell>
        <mxCell id="0KcaxCZPYPAta7BWgIzk-4" value="&lt;b&gt;&lt;font face=&quot;Verdana&quot;&gt;Elastic Load Balancer&lt;/font&gt;&lt;/b&gt;" style="text;html=1;align=center;verticalAlign=middle;whiteSpace=wrap;rounded=0;" parent="-dW1893087y7R_rvXg5h-1" vertex="1">
          <mxGeometry x="320.25" y="227.5" width="85.5" height="30" as="geometry" />
        </mxCell>
        <mxCell id="0KcaxCZPYPAta7BWgIzk-5" style="edgeStyle=orthogonalEdgeStyle;rounded=0;orthogonalLoop=1;jettySize=auto;html=1;exitX=0.25;exitY=0;exitDx=0;exitDy=0;entryX=0.25;entryY=0;entryDx=0;entryDy=0;" parent="-dW1893087y7R_rvXg5h-1" source="0KcaxCZPYPAta7BWgIzk-4" target="0KcaxCZPYPAta7BWgIzk-4" edge="1">
          <mxGeometry relative="1" as="geometry" />
        </mxCell>
        <mxCell id="-dW1893087y7R_rvXg5h-4" value="&lt;b&gt;&lt;font style=&quot;color: rgb(102, 102, 255);&quot; face=&quot;Helvetica&quot;&gt;Availability Zone&lt;/font&gt;&lt;/b&gt;&lt;div&gt;&lt;b&gt;&lt;font style=&quot;color: rgb(102, 102, 255);&quot; face=&quot;Helvetica&quot;&gt;us-west-1a&lt;/font&gt;&lt;/b&gt;&lt;/div&gt;" style="fillColor=none;strokeColor=#147EBA;dashed=1;verticalAlign=top;fontStyle=0;fontColor=#147EBA;whiteSpace=wrap;html=1;rounded=0;strokeWidth=3;" parent="-dW1893087y7R_rvXg5h-1" vertex="1">
          <mxGeometry x="55" y="59" width="204" height="349" as="geometry" />
        </mxCell>
        <mxCell id="45tHPp1j6VeSHIS7WZfE-20" value="&lt;b&gt;&lt;font style=&quot;color: rgb(102, 102, 255);&quot; face=&quot;Helvetica&quot;&gt;Availability Zone&lt;/font&gt;&lt;/b&gt;&lt;div&gt;&lt;b&gt;&lt;font style=&quot;color: rgb(102, 102, 255);&quot; face=&quot;Helvetica&quot;&gt;us-west-1a&lt;/font&gt;&lt;/b&gt;&lt;/div&gt;" style="fillColor=none;strokeColor=#147EBA;dashed=1;verticalAlign=top;fontStyle=0;fontColor=#147EBA;whiteSpace=wrap;html=1;rounded=0;strokeWidth=3;" parent="-dW1893087y7R_rvXg5h-1" vertex="1">
          <mxGeometry x="470.5" y="63" width="204" height="349" as="geometry" />
        </mxCell>
        <mxCell id="0KcaxCZPYPAta7BWgIzk-1" value="&lt;font face=&quot;Verdana&quot; style=&quot;font-size: 14px;&quot;&gt;&lt;b&gt;CHIOMA&#39;S WORK on 2 Tier&lt;/b&gt;&lt;/font&gt;" style="text;html=1;align=center;verticalAlign=middle;whiteSpace=wrap;rounded=0;" parent="1" vertex="1">
          <mxGeometry x="-185" y="-11" width="157" height="30" as="geometry" />
        </mxCell>
      </root>
    </mxGraphModel>
  </diagram>
</mxfile>
